<?xml version="1.0" encoding="utf-8"?>
<!-- Generator: Adobe Illustrator 16.0.0, SVG Export Plug-In . SVG Version: 6.00 Build 0)  -->
<!DOCTYPE svg PUBLIC "-//W3C//DTD SVG 1.1//EN" "http://www.w3.org/Graphics/SVG/1.1/DTD/svg11.dtd">
<svg version="1.1" id="Layer_1" xmlns="http://www.w3.org/2000/svg" xmlns:xlink="http://www.w3.org/1999/xlink" x="0px" y="0px"
	 width="65.078px" height="65.089px" viewBox="0 0 65.078 65.089" enable-background="new 0 0 65.078 65.089" xml:space="preserve">
<g>
	<g>
		<path fill-rule="evenodd" clip-rule="evenodd" fill="#FFFFFF" d="M46.669,36.044c2.424,2.234,4.113,4.057,5.068,5.457
			c0.447,0.703,0.592,1.326,0.434,1.869c-0.162,0.545-0.531,0.813-1.1,0.813l-6.318,0.287c-0.896,0.063-1.979-0.479-3.256-1.627
			s-2.139-2.105-2.584-2.875c-0.256-0.443-0.717-0.699-1.389-0.764c-0.672-0.063-1.1,0.256-1.291,0.957l-0.191,2.488
			c-0.066,0.512-0.258,0.898-0.578,1.15c-0.318,0.256-0.588,0.398-0.813,0.43c-0.223,0.035-0.588,0.08-1.1,0.146
			c-1.664,0.061-3.111-0.018-4.355-0.242c-1.246-0.219-2.379-0.689-3.396-1.387c-1.023-0.703-1.836-1.34-2.441-1.912
			c-0.607-0.578-1.486-1.5-2.631-2.779c-3.129-4.466-5.459-8.324-6.986-11.58c-0.582-1.277-0.895-2.359-0.963-3.254
			c0.256-0.256,0.736-0.418,1.439-0.48c0.699-0.063,1.721-0.078,3.064-0.047c1.342,0.031,2.131,0.047,2.391,0.047
			c0.639-0.063,1.148,0.287,1.531,1.051c1.594,3.574,3.16,6.348,4.688,8.328c1.023,0.957,1.695,0.799,2.014-0.477
			c0.125,0,0.189-1.564,0.189-4.693c0.064-1.977-0.734-3.221-2.393-3.729c0.387-1.02,1.727-1.531,4.021-1.531
			c0.572,0,1.277,0.029,2.107,0.094c0.828,0.064,1.273,0.094,1.338,0.094c1.912,0,2.873,0.768,2.873,2.301
			c0,0.191-0.033,0.654-0.098,1.387c-0.063,0.734-0.109,1.436-0.141,2.105c-0.037,0.67-0.047,1.373-0.047,2.107
			c0,0.732,0.09,1.354,0.285,1.865c0.191,0.51,0.447,0.828,0.764,0.957c0.352-0.256,0.686-0.494,1.008-0.717
			c0.32-0.225,0.652-0.592,1.006-1.102c0.352-0.512,0.621-0.895,0.813-1.15s0.477-0.73,0.861-1.434
			c0.381-0.705,0.607-1.146,0.668-1.34c0.066-0.189,0.289-0.689,0.672-1.482c0.383-0.797,0.574-1.197,0.574-1.197l0.141-0.287
			c0.256-0.574,0.465-0.91,0.623-1.006c0.16-0.096,0.561-0.145,1.197-0.145h5.934c0.703,0,1.123,0.016,1.248,0.049
			c0.127,0.029,0.318,0.176,0.57,0.432c0.447,0.57,0.051,1.814-1.193,3.729c-1.246,1.918-2.443,3.512-3.594,4.789
			C45.741,33.527,45.517,34.96,46.669,36.044z"/>
	</g>
</g>
</svg>
